<?xml version="1.0" encoding="UTF-8" standalone="no"?>
<svg
   xmlns:dc="http://purl.org/dc/elements/1.1/"
   xmlns:cc="http://creativecommons.org/ns#"
   xmlns:rdf="http://www.w3.org/1999/02/22-rdf-syntax-ns#"
   xmlns:svg="http://www.w3.org/2000/svg"
   xmlns="http://www.w3.org/2000/svg"
   xmlns:sodipodi="http://sodipodi.sourceforge.net/DTD/sodipodi-0.dtd"
   xmlns:inkscape="http://www.inkscape.org/namespaces/inkscape"
   viewBox="0 0 273.6676 258.522"
   version="1.1"
   xml:space="preserve"
   id="svg2"
   inkscape:version="0.48.4 r9939"
   width="100%"
   height="100%"
   sodipodi:docname="nakres2.svg"
   style="fill-rule:evenodd;stroke-linecap:round;stroke-linejoin:round"><metadata
     id="metadata113"><rdf:RDF><cc:Work
         rdf:about=""><dc:format>image/svg+xml</dc:format><dc:type
           rdf:resource="http://purl.org/dc/dcmitype/StillImage" /></cc:Work></rdf:RDF></metadata><sodipodi:namedview
     pagecolor="#ffffff"
     bordercolor="#666666"
     borderopacity="1"
     objecttolerance="10"
     gridtolerance="10"
     guidetolerance="10"
     inkscape:pageopacity="0"
     inkscape:pageshadow="2"
     inkscape:window-width="640"
     inkscape:window-height="480"
     id="namedview111"
     showgrid="false"
     fit-margin-top="0"
     fit-margin-left="0"
     fit-margin-right="0"
     fit-margin-bottom="0"
     inkscape:zoom="0.30729167"
     inkscape:cx="99.679809"
     inkscape:cy="88.085"
     inkscape:window-x="0"
     inkscape:window-y="27"
     inkscape:window-maximized="0"
     inkscape:current-layer="svg2" /><defs
     id="defs4"><clipPath
       id="clipId0"><path
         d="M 0,768 1024,768 1024,0 0,0 z"
         id="path7"
         inkscape:connector-curvature="0" /></clipPath></defs><g
     clip-path="url(#clipId0)"
     id="g9"
     style="fill:none;stroke:#000000;stroke-width:0.1"
     transform="translate(-412.32019,-213.563)" /><g
     clip-path="url(#clipId0)"
     id="g11"
     style="fill:none;stroke:#000000;stroke-width:0.80000001"
     transform="translate(-412.32019,-213.563)"><polyline
       points="574.795,225.183 574.795,255.392 "
       id="polyline13" /><polyline
       points="574.795,255.392 511.779,255.392 "
       id="polyline15" /><polyline
       points="511.779,255.392 511.779,337.907 "
       id="polyline17" /><polyline
       points="574.795,255.392 574.795,289.405 "
       id="polyline19" /><polyline
       points="511.779,447.055 574.795,447.055 "
       id="polyline21" /><polyline
       points="511.779,447.055 511.779,365.441 "
       id="polyline23" /><polyline
       points="574.795,447.055 574.795,471.685 "
       id="polyline25" /><polyline
       points="605.23,351.223 605.23,289.14 "
       id="polyline27" /><polyline
       points="544.361,413.307 544.361,289.14 "
       id="polyline29" /><path
       d="m 605.23,289.14 a 34.6315,34.6315 -28.5014 0 0 -60.869,0"
       id="path31"
       inkscape:connector-curvature="0" /><path
       d="m 544.361,413.307 a 33.3234,33.3234 -24.0343 0 0 60.869,0"
       id="path33"
       inkscape:connector-curvature="0" /><polyline
       points="557.664,289.405 592.784,289.405 "
       id="polyline35" /><polyline
       points="556.155,413.674 593.436,413.674 "
       id="polyline37" /><polyline
       points="574.795,447.055 574.795,413.674 "
       id="polyline39" /><ellipse
       rx="13.7828"
       ry="13.7828"
       cx="671.80499"
       cy="346.035"
       id="ellipse41"
       sodipodi:cx="671.80499"
       sodipodi:cy="346.035"
       sodipodi:rx="13.7828"
       sodipodi:ry="13.7828"
       d="m 685.58779,346.035 c 0,7.61203 -6.17077,13.7828 -13.7828,13.7828 -7.61203,0 -13.7828,-6.17077 -13.7828,-13.7828 0,-7.61203 6.17077,-13.7828 13.7828,-13.7828 7.61203,0 13.7828,6.17077 13.7828,13.7828 z" /><polyline
       points="674.554,359.541 682.169,336.949 "
       id="polyline43" /><polyline
       points="669.261,359.581 662.089,336.259 "
       id="polyline45" /><polyline
       points="605.23,351.223 605.23,413.307 "
       id="polyline47" /><polyline
       points="623.012,307.909 648.911,328.094 "
       id="polyline49" /><polyline
       points="623.012,307.909 623.012,328.094 "
       id="polyline51" /><polyline
       points="623.012,328.094 623.012,328.094 "
       id="polyline53" /><polyline
       points="648.911,328.094 648.911,307.909 "
       id="polyline55" /><polyline
       points="623.012,328.094 648.911,307.909 "
       id="polyline57" /><polyline
       points="658.022,346.035 605.23,346.035 "
       id="polyline59" /><polyline
       points="635.962,318.001 635.962,346.035 "
       id="polyline61" /><polyline
       points="635.962,346.035 635.962,375.031 "
       id="polyline63" /><ellipse
       rx="13.7828"
       ry="13.7828"
       cx="635.96198"
       cy="388.814"
       id="ellipse65"
       sodipodi:cx="635.96198"
       sodipodi:cy="388.814"
       sodipodi:rx="13.7828"
       sodipodi:ry="13.7828"
       d="m 649.74477,388.814 c 0,7.61203 -6.17076,13.7828 -13.78279,13.7828 -7.61203,0 -13.7828,-6.17077 -13.7828,-13.7828 0,-7.61203 6.17077,-13.7828 13.7828,-13.7828 7.61203,0 13.78279,6.17077 13.78279,13.7828 z" /></g><g
     clip-path="url(#clipId0)"
     id="g67"
     style="fill:#000000;stroke:none"
     transform="translate(-412.32019,-213.563)"><text
       transform="matrix(12.8756,-0.103835,0.103835,12.8756,628.313,396.327)"
       font-size="1.14592"
       id="text69"
       style="font-size:1.14592004px;font-family:'Arial,\'sans-serif\''">M</text>
</g><g
     clip-path="url(#clipId0)"
     id="g71"
     style="fill:none;stroke:#000000;stroke-width:0.80000001"
     transform="translate(-412.32019,-213.563)"><ellipse
       rx="13.7828"
       ry="13.7828"
       cx="511.121"
       cy="351.67401"
       id="ellipse73"
       sodipodi:cx="511.121"
       sodipodi:cy="351.67401"
       sodipodi:rx="13.7828"
       sodipodi:ry="13.7828"
       d="m 524.9038,351.67401 c 0,7.61203 -6.17077,13.7828 -13.7828,13.7828 -7.61203,0 -13.7828,-6.17077 -13.7828,-13.7828 0,-7.61203 6.17077,-13.7828 13.7828,-13.7828 7.61203,0 13.7828,6.17077 13.7828,13.7828 z" /></g><g
     clip-path="url(#clipId0)"
     id="g75"
     style="fill:#000000;stroke:none"
     transform="translate(-412.32019,-213.563)"><text
       transform="matrix(13.764,-0.111,0.111,13.764,504.747,359.824)"
       font-size="1.14592"
       id="text77"
       style="font-size:1.14592004px;font-family:'Arial,\'sans-serif\''">V</text>
</g><g
     clip-path="url(#clipId0)"
     id="g79"
     style="fill:none;stroke:#000000;stroke-width:0.80000001"
     transform="translate(-412.32019,-213.563)"><polyline
       points="459.754,213.963 541.544,213.963 541.544,237.756 459.754,237.756 459.754,213.963 "
       id="polyline81" /><polyline
       points="574.795,225.183 541.544,225.183 "
       id="polyline83" /><polyline
       points="426.503,225.183 459.754,225.183 "
       id="polyline85" /><polyline
       points="426.503,471.685 574.795,471.685 "
       id="polyline87" /><polyline
       points="426.503,262.759 426.503,225.183 "
       id="polyline89" /><ellipse
       rx="13.7828"
       ry="13.7828"
       cx="426.50299"
       cy="276.54199"
       id="ellipse91"
       sodipodi:cx="426.50299"
       sodipodi:cy="276.54199"
       sodipodi:rx="13.7828"
       sodipodi:ry="13.7828"
       d="m 440.28579,276.54199 c 0,7.61203 -6.17077,13.7828 -13.7828,13.7828 -7.61203,0 -13.7828,-6.17077 -13.7828,-13.7828 0,-7.61203 6.17077,-13.7828 13.7828,-13.7828 7.61203,0 13.7828,6.17077 13.7828,13.7828 z" /></g><g
     clip-path="url(#clipId0)"
     id="g93"
     style="fill:#000000;stroke:none"
     transform="translate(-412.32019,-213.563)"><text
       transform="matrix(13.764,-0.111,0.111,13.764,420.129,284.691)"
       font-size="1.14592"
       id="text95"
       style="font-size:1.14592004px;font-family:'Arial,\'sans-serif\''">A</text>
</g><g
     clip-path="url(#clipId0)"
     id="g97"
     style="fill:none;stroke:#000000;stroke-width:0.80000001"
     transform="translate(-412.32019,-213.563)"><polyline
       points="426.503,471.685 426.503,365.188 "
       id="polyline99" /><polyline
       points="426.503,337.622 426.503,290.325 "
       id="polyline101" /><ellipse
       rx="13.7828"
       ry="13.7828"
       cx="426.50299"
       cy="351.405"
       id="ellipse103"
       sodipodi:cx="426.50299"
       sodipodi:cy="351.405"
       sodipodi:rx="13.7828"
       sodipodi:ry="13.7828"
       d="m 440.28579,351.405 c 0,7.61203 -6.17077,13.7828 -13.7828,13.7828 -7.61203,0 -13.7828,-6.17077 -13.7828,-13.7828 0,-7.61203 6.17077,-13.7828 13.7828,-13.7828 7.61203,0 13.7828,6.17077 13.7828,13.7828 z" /><polyline
       points="422.784,341.977 430.618,341.977 "
       id="polyline105" /><polyline
       points="426.582,338.653 426.582,345.538 "
       id="polyline107" /><polyline
       points="424.09,361.68 430.025,361.68 "
       id="polyline109" /></g></svg>