<?xml version="1.0" encoding="UTF-8" standalone="no"?>
<svg
   xmlns:dc="http://purl.org/dc/elements/1.1/"
   xmlns:cc="http://creativecommons.org/ns#"
   xmlns:rdf="http://www.w3.org/1999/02/22-rdf-syntax-ns#"
   xmlns:svg="http://www.w3.org/2000/svg"
   xmlns="http://www.w3.org/2000/svg"
   xmlns:sodipodi="http://sodipodi.sourceforge.net/DTD/sodipodi-0.dtd"
   xmlns:inkscape="http://www.inkscape.org/namespaces/inkscape"
   viewBox="0 0 403.84205 381.472"
   version="1.1"
   xml:space="preserve"
   id="svg2"
   inkscape:version="0.48.4 r9939"
   width="100%"
   height="100%"
   sodipodi:docname="nakres1.svg"
   style="fill-rule:evenodd;stroke-linecap:round;stroke-linejoin:round"><metadata
     id="metadata103"><rdf:RDF><cc:Work
         rdf:about=""><dc:format>image/svg+xml</dc:format><dc:type
           rdf:resource="http://purl.org/dc/dcmitype/StillImage" /></cc:Work></rdf:RDF></metadata><sodipodi:namedview
     pagecolor="#ffffff"
     bordercolor="#666666"
     borderopacity="1"
     objecttolerance="10"
     gridtolerance="10"
     guidetolerance="10"
     inkscape:pageopacity="0"
     inkscape:pageshadow="2"
     inkscape:window-width="640"
     inkscape:window-height="480"
     id="namedview101"
     showgrid="false"
     fit-margin-top="0"
     fit-margin-left="0"
     fit-margin-right="0"
     fit-margin-bottom="0"
     inkscape:zoom="0.30729167"
     inkscape:cx="-72.31097"
     inkscape:cy="182.465"
     inkscape:window-x="0"
     inkscape:window-y="27"
     inkscape:window-maximized="0"
     inkscape:current-layer="svg2" /><defs
     id="defs4"><clipPath
       id="clipId0"><path
         d="M 0,768 1024,768 1024,0 0,0 z"
         id="path7"
         inkscape:connector-curvature="0" /></clipPath></defs><g
     clip-path="url(#clipId0)"
     id="g9"
     style="fill:none;stroke:#000000;stroke-width:0.1"
     transform="translate(-584.31097,-184.993)" /><g
     clip-path="url(#clipId0)"
     id="g11"
     style="fill:none;stroke:#000000;stroke-width:0.80000001"
     transform="translate(-584.31097,-184.993)"><polyline
       points="824.106,201.966 824.106,246.587 "
       id="polyline13" /><polyline
       points="824.106,246.587 731.027,246.587 "
       id="polyline15" /><polyline
       points="731.027,246.587 731.027,368.467 "
       id="polyline17" /><polyline
       points="824.106,246.587 824.106,296.826 "
       id="polyline19" /><polyline
       points="731.027,529.684 824.106,529.684 "
       id="polyline21" /><polyline
       points="731.027,529.684 731.027,409.136 "
       id="polyline23" /><polyline
       points="824.106,529.684 824.106,566.065 "
       id="polyline25" /><polyline
       points="869.059,388.136 869.059,296.435 "
       id="polyline27" /><polyline
       points="779.153,479.837 779.153,296.435 "
       id="polyline29" /><path
       d="m 869.059,296.435 a 51.1527,51.1527 -28.5014 0 0 -89.906,0"
       id="path31"
       inkscape:connector-curvature="0" /><path
       d="m 779.153,479.837 a 49.2206,49.2206 -24.0343 0 0 89.906,0"
       id="path33"
       inkscape:connector-curvature="0" /><polyline
       points="798.802,296.826 850.676,296.826 "
       id="polyline35" /><polyline
       points="796.573,480.379 851.639,480.379 "
       id="polyline37" /><polyline
       points="824.106,529.684 824.106,480.379 "
       id="polyline39" /><ellipse
       rx="20.358"
       ry="20.358"
       cx="967.39502"
       cy="380.47101"
       id="ellipse41"
       sodipodi:cx="967.39502"
       sodipodi:cy="380.47101"
       sodipodi:rx="20.358"
       sodipodi:ry="20.358"
       d="m 987.75302,380.47101 c 0,11.24341 -9.11459,20.358 -20.358,20.358 -11.24341,0 -20.358,-9.11459 -20.358,-20.358 0,-11.24341 9.11459,-20.358 20.358,-20.358 11.24341,0 20.358,9.11459 20.358,20.358 z" /><polyline
       points="971.455,400.42 982.703,367.051 "
       id="polyline43" /><polyline
       points="963.637,400.48 953.043,366.033 "
       id="polyline45" /><polyline
       points="869.059,388.136 869.059,479.837 "
       id="polyline47" /><polyline
       points="895.325,324.157 933.579,353.973 "
       id="polyline49" /><polyline
       points="895.325,324.157 895.325,353.973 "
       id="polyline51" /><polyline
       points="895.325,353.973 895.325,353.973 "
       id="polyline53" /><polyline
       points="933.579,353.973 933.579,324.157 "
       id="polyline55" /><polyline
       points="895.325,353.973 933.579,324.157 "
       id="polyline57" /><polyline
       points="947.037,380.471 869.059,380.471 "
       id="polyline59" /><polyline
       points="914.452,339.065 914.452,380.471 "
       id="polyline61" /><polyline
       points="914.452,380.471 914.452,423.3 "
       id="polyline63" /><ellipse
       rx="20.358"
       ry="20.358"
       cx="914.45203"
       cy="443.65799"
       id="ellipse65"
       sodipodi:cx="914.45203"
       sodipodi:cy="443.65799"
       sodipodi:rx="20.358"
       sodipodi:ry="20.358"
       d="m 934.81003,443.65799 c 0,11.24341 -9.11459,20.358 -20.358,20.358 -11.24342,0 -20.358,-9.11459 -20.358,-20.358 0,-11.24341 9.11458,-20.358 20.358,-20.358 11.24341,0 20.358,9.11459 20.358,20.358 z" /></g><g
     clip-path="url(#clipId0)"
     id="g67"
     style="fill:#000000;stroke:none"
     transform="translate(-584.31097,-184.993)"><text
       transform="matrix(19.018,-0.153371,0.153371,19.018,903.154,454.756)"
       font-size="1.14592"
       id="text69"
       style="font-size:1.14592004px;font-family:'Arial,\'sans-serif\''">M</text>
</g><g
     clip-path="url(#clipId0)"
     id="g71"
     style="fill:none;stroke:#000000;stroke-width:0.80000001"
     transform="translate(-584.31097,-184.993)"><ellipse
       rx="20.358"
       ry="20.358"
       cx="730.05499"
       cy="388.802"
       id="ellipse73"
       sodipodi:cx="730.05499"
       sodipodi:cy="388.802"
       sodipodi:rx="20.358"
       sodipodi:ry="20.358"
       d="m 750.41299,388.802 c 0,11.24341 -9.11458,20.358 -20.358,20.358 -11.24341,0 -20.358,-9.11459 -20.358,-20.358 0,-11.24341 9.11459,-20.358 20.358,-20.358 11.24342,0 20.358,9.11459 20.358,20.358 z" /></g><g
     clip-path="url(#clipId0)"
     id="g75"
     style="fill:#000000;stroke:none"
     transform="translate(-584.31097,-184.993)"><text
       transform="matrix(20.3302,-0.163953,0.163953,20.3302,720.641,400.838)"
       font-size="1.14592"
       id="text77"
       style="font-size:1.14592004px;font-family:'Arial,\'sans-serif\''">V</text>
</g><g
     clip-path="url(#clipId0)"
     id="g79"
     style="fill:none;stroke:#000000;stroke-width:0.80000001"
     transform="translate(-584.31097,-184.993)"><polyline
       points="654.183,185.393 774.992,185.393 774.992,220.538 654.183,220.538 654.183,185.393 "
       id="polyline81" /><polyline
       points="824.106,201.966 774.992,201.966 "
       id="polyline83" /><polyline
       points="605.069,201.966 654.183,201.966 "
       id="polyline85" /><polyline
       points="605.069,566.065 824.106,566.065 "
       id="polyline87" /><polyline
       points="605.069,566.065 605.069,408.762 "
       id="polyline89" /><polyline
       points="605.069,368.046 605.069,201.966 "
       id="polyline91" /><ellipse
       rx="20.358"
       ry="20.358"
       cx="605.06897"
       cy="388.40399"
       id="ellipse93"
       sodipodi:cx="605.06897"
       sodipodi:cy="388.40399"
       sodipodi:rx="20.358"
       sodipodi:ry="20.358"
       d="m 625.42697,388.40399 c 0,11.24341 -9.11459,20.358 -20.358,20.358 -11.24341,0 -20.358,-9.11459 -20.358,-20.358 0,-11.24341 9.11459,-20.358 20.358,-20.358 11.24341,0 20.358,9.11459 20.358,20.358 z" /><polyline
       points="599.576,374.478 611.147,374.478 "
       id="polyline95" /><polyline
       points="605.186,369.569 605.186,379.737 "
       id="polyline97" /><polyline
       points="601.505,403.581 610.271,403.581 "
       id="polyline99" /></g></svg>