<?xml version="1.0" encoding="UTF-8" standalone="no"?>
<svg
   xmlns:dc="http://purl.org/dc/elements/1.1/"
   xmlns:cc="http://creativecommons.org/ns#"
   xmlns:rdf="http://www.w3.org/1999/02/22-rdf-syntax-ns#"
   xmlns:svg="http://www.w3.org/2000/svg"
   xmlns="http://www.w3.org/2000/svg"
   xmlns:sodipodi="http://sodipodi.sourceforge.net/DTD/sodipodi-0.dtd"
   xmlns:inkscape="http://www.inkscape.org/namespaces/inkscape"
   viewBox="0 0 245.09399 239.26"
   version="1.1"
   xml:space="preserve"
   id="svg2"
   inkscape:version="0.48.4 r9939"
   width="100%"
   height="100%"
   sodipodi:docname="nakres3.svg"
   style="fill-rule:evenodd;stroke-linecap:round;stroke-linejoin:round"><metadata
     id="metadata123"><rdf:RDF><cc:Work
         rdf:about=""><dc:format>image/svg+xml</dc:format><dc:type
           rdf:resource="http://purl.org/dc/dcmitype/StillImage" /></cc:Work></rdf:RDF></metadata><sodipodi:namedview
     pagecolor="#ffffff"
     bordercolor="#666666"
     borderopacity="1"
     objecttolerance="10"
     gridtolerance="10"
     guidetolerance="10"
     inkscape:pageopacity="0"
     inkscape:pageshadow="2"
     inkscape:window-width="640"
     inkscape:window-height="480"
     id="namedview121"
     showgrid="false"
     fit-margin-top="0"
     fit-margin-left="0"
     fit-margin-right="0"
     fit-margin-bottom="0"
     inkscape:zoom="0.30729167"
     inkscape:cx="-188.21649"
     inkscape:cy="188.225"
     inkscape:window-x="0"
     inkscape:window-y="27"
     inkscape:window-maximized="0"
     inkscape:current-layer="svg2" /><defs
     id="defs4"><clipPath
       id="clipId0"><path
         d="M 0,768 1024,768 1024,0 0,0 z"
         id="path7"
         inkscape:connector-curvature="0" /></clipPath></defs><g
     clip-path="url(#clipId0)"
     id="g9"
     style="fill:none;stroke:#000000;stroke-width:0.1"
     transform="translate(-700.21649,-332.965)" /><g
     clip-path="url(#clipId0)"
     id="g11"
     style="fill:none;stroke:#000000;stroke-width:0.80000001"
     transform="translate(-700.21649,-332.965)"><polyline
       points="712.956,384.776 712.956,351.135 "
       id="polyline13" /><polyline
       points="845.72,351.135 845.72,378.181 "
       id="polyline15" /><polyline
       points="789.302,426.276 789.302,452.055 "
       id="polyline17" /><polyline
       points="845.72,378.181 845.72,408.632 "
       id="polyline19" /><polyline
       points="712.956,571.825 712.956,476.479 "
       id="polyline21" /><polyline
       points="789.302,499.545 789.302,476.706 "
       id="polyline23" /><polyline
       points="845.72,549.774 845.72,571.825 "
       id="polyline25" /><polyline
       points="872.967,463.977 872.967,408.395 "
       id="polyline27" /><polyline
       points="818.472,519.56 818.472,408.395 "
       id="polyline29" /><path
       d="m 872.967,408.395 a 31.005,31.005 -28.5014 0 0 -54.495,0"
       id="path31"
       inkscape:connector-curvature="0" /><path
       d="m 818.472,519.56 a 29.8339,29.8339 -24.0343 0 0 54.495,0"
       id="path33"
       inkscape:connector-curvature="0" /><polyline
       points="830.382,408.632 861.825,408.632 "
       id="polyline35" /><polyline
       points="829.031,519.888 862.408,519.888 "
       id="polyline37" /><polyline
       points="845.72,549.774 845.72,519.888 "
       id="polyline39" /><ellipse
       rx="12.3395"
       ry="12.3395"
       cx="932.57098"
       cy="459.332"
       id="ellipse41"
       sodipodi:cx="932.57098"
       sodipodi:cy="459.332"
       sodipodi:rx="12.3395"
       sodipodi:ry="12.3395"
       d="m 944.91048,459.332 c 0,6.81492 -5.52458,12.3395 -12.3395,12.3395 -6.81491,0 -12.3395,-5.52458 -12.3395,-12.3395 0,-6.81492 5.52459,-12.3395 12.3395,-12.3395 6.81492,0 12.3395,5.52458 12.3395,12.3395 z" /><polyline
       points="935.032,471.423 941.849,451.197 "
       id="polyline43" /><polyline
       points="930.293,471.459 923.872,450.58 "
       id="polyline45" /><polyline
       points="872.967,463.977 872.967,519.56 "
       id="polyline47" /><polyline
       points="888.887,425.198 912.074,443.27 "
       id="polyline49" /><polyline
       points="888.887,425.198 888.887,443.27 "
       id="polyline51" /><polyline
       points="888.887,443.27 888.887,443.27 "
       id="polyline53" /><polyline
       points="912.074,443.27 912.074,425.198 "
       id="polyline55" /><polyline
       points="888.887,443.27 912.074,425.198 "
       id="polyline57" /><polyline
       points="920.231,459.332 872.967,459.332 "
       id="polyline59" /><polyline
       points="900.481,434.234 900.481,459.332 "
       id="polyline61" /><polyline
       points="900.481,459.332 900.481,485.291 "
       id="polyline63" /><ellipse
       rx="12.3395"
       ry="12.3395"
       cx="900.48102"
       cy="497.63101"
       id="ellipse65"
       sodipodi:cx="900.48102"
       sodipodi:cy="497.63101"
       sodipodi:rx="12.3395"
       sodipodi:ry="12.3395"
       d="m 912.82052,497.63101 c 0,6.81492 -5.52458,12.3395 -12.3395,12.3395 -6.81492,0 -12.3395,-5.52458 -12.3395,-12.3395 0,-6.81492 5.52458,-12.3395 12.3395,-12.3395 6.81492,0 12.3395,5.52458 12.3395,12.3395 z" /></g><g
     clip-path="url(#clipId0)"
     id="g67"
     style="fill:#000000;stroke:none"
     transform="translate(-700.21649,-332.965)"><text
       transform="matrix(11.5273,-0.0929621,0.0929621,11.5273,893.633,504.358)"
       font-size="1.14592"
       id="text69"
       style="font-size:1.14592004px;font-family:'Arial,\'sans-serif\''">M</text>
</g><g
     clip-path="url(#clipId0)"
     id="g71"
     style="fill:none;stroke:#000000;stroke-width:0.80000001"
     transform="translate(-700.21649,-332.965)"><ellipse
       rx="12.3395"
       ry="12.3395"
       cx="788.71301"
       cy="464.38101"
       id="ellipse73"
       sodipodi:cx="788.71301"
       sodipodi:cy="464.38101"
       sodipodi:rx="12.3395"
       sodipodi:ry="12.3395"
       d="m 801.05251,464.38101 c 0,6.81492 -5.52458,12.3395 -12.3395,12.3395 -6.81492,0 -12.3395,-5.52458 -12.3395,-12.3395 0,-6.81492 5.52458,-12.3395 12.3395,-12.3395 6.81492,0 12.3395,5.52458 12.3395,12.3395 z" /></g><g
     clip-path="url(#clipId0)"
     id="g75"
     style="fill:#000000;stroke:none"
     transform="translate(-700.21649,-332.965)"><text
       transform="matrix(12.3227,-0.0993762,0.0993762,12.3227,783.007,471.677)"
       font-size="1.14592"
       id="text77"
       style="font-size:1.14592004px;font-family:'Arial,\'sans-serif\''">V</text>
</g><g
     clip-path="url(#clipId0)"
     id="g79"
     style="fill:none;stroke:#000000;stroke-width:0.80000001"
     transform="translate(-700.21649,-332.965)"><polyline
       points="742.725,341.09 815.95,341.09 815.95,362.392 742.725,362.392 742.725,341.09 "
       id="polyline81" /><polyline
       points="845.72,351.135 815.95,351.135 "
       id="polyline83" /><polyline
       points="712.956,351.135 742.725,351.135 "
       id="polyline85" /><polyline
       points="712.956,571.825 845.72,571.825 "
       id="polyline87" /><ellipse
       rx="12.3395"
       ry="12.3395"
       cx="712.95599"
       cy="397.116"
       id="ellipse89"
       sodipodi:cx="712.95599"
       sodipodi:cy="397.116"
       sodipodi:rx="12.3395"
       sodipodi:ry="12.3395"
       d="m 725.29549,397.116 c 0,6.81492 -5.52458,12.3395 -12.3395,12.3395 -6.81491,0 -12.3395,-5.52458 -12.3395,-12.3395 0,-6.81492 5.52459,-12.3395 12.3395,-12.3395 6.81492,0 12.3395,5.52458 12.3395,12.3395 z" /></g><g
     clip-path="url(#clipId0)"
     id="g91"
     style="fill:#000000;stroke:none"
     transform="translate(-700.21649,-332.965)"><text
       transform="matrix(12.3227,-0.0993762,0.0993762,12.3227,707.249,404.412)"
       font-size="1.14592"
       id="text93"
       style="font-size:1.14592004px;font-family:'Arial,\'sans-serif\''">A</text>
</g><g
     clip-path="url(#clipId0)"
     id="g95"
     style="fill:none;stroke:#000000;stroke-width:0.80000001"
     transform="translate(-700.21649,-332.965)"><polyline
       points="712.956,451.8 712.956,409.455 "
       id="polyline97" /><polyline
       points="712.956,426.276 789.302,426.276 "
       id="polyline99" /><polyline
       points="789.302,499.545 712.956,499.545 "
       id="polyline101" /><polyline
       points="749.53,369.464 794.47,333.365 "
       id="polyline103" /><polyline
       points="794.47,333.365 794.47,333.365 "
       id="polyline105" /><polyline
       points="794.47,333.365 794.47,337.068 "
       id="polyline107" /><polyline
       points="794.47,337.068 794.47,333.365 "
       id="polyline109" /><polyline
       points="794.47,333.365 790.462,333.365 "
       id="polyline111" /><ellipse
       rx="12.3395"
       ry="12.3395"
       cx="712.95599"
       cy="464.14001"
       id="ellipse113"
       sodipodi:cx="712.95599"
       sodipodi:cy="464.14001"
       sodipodi:rx="12.3395"
       sodipodi:ry="12.3395"
       d="m 725.29549,464.14001 c 0,6.81492 -5.52458,12.33951 -12.3395,12.33951 -6.81491,0 -12.3395,-5.52459 -12.3395,-12.33951 0,-6.81491 5.52459,-12.3395 12.3395,-12.3395 6.81492,0 12.3395,5.52459 12.3395,12.3395 z" /><polyline
       points="709.626,455.699 716.64,455.699 "
       id="polyline115" /><polyline
       points="713.027,452.723 713.027,458.887 "
       id="polyline117" /><polyline
       points="710.795,473.339 716.108,473.339 "
       id="polyline119" /></g></svg>